<?xml version="1.0" encoding="UTF-8"?>
<svg id="Layer_1" data-name="Layer 1" xmlns="http://www.w3.org/2000/svg" xmlns:xlink="http://www.w3.org/1999/xlink" viewBox="0 0 120 120">
  <defs>
    <style>
      .cls-1 {
        fill: url(#linear-gradient);
      }

      .cls-1, .cls-2, .cls-3 {
        stroke-width: 0px;
      }

      .cls-2 {
        fill: url(#linear-gradient-2);
      }

      .cls-3 {
        fill: #2b2a39;
      }
    </style>
    <linearGradient id="linear-gradient" x1="26.62" y1="79.32" x2="78.39" y2="79.32" gradientTransform="translate(0 122) scale(1 -1)" gradientUnits="userSpaceOnUse">
      <stop offset="0" stop-color="#0658d4"/>
      <stop offset="1" stop-color="#2c7ef9"/>
    </linearGradient>
    <linearGradient id="linear-gradient-2" x1="100.17" y1="74.99" x2="56.9" y2="93.53" gradientTransform="translate(0 122) scale(1 -1)" gradientUnits="userSpaceOnUse">
      <stop offset="0" stop-color="#198852"/>
      <stop offset="1" stop-color="#43b476"/>
    </linearGradient>
  </defs>
  <g>
    <path class="cls-3" d="m72.8,98.25c-4,4.26-12.01,3.58-15.69-.72-3.54-4.12-3.39-10.95.34-14.81,3.85-3.99,11.87-4.42,15.6-.01,0-.85.03-1.6-.01-2.34-.01-.42.12-.49.49-.49,1.3.01,2.58.01,3.88,0,.34,0,.46.07.46.45-.01,6.47,0,12.92-.03,19.38-.01,1.78-.34,3.52-1.06,5.17-1.27,2.9-3.52,4.55-6.48,5.2-4.26.91-8.42.54-12.44-1.25-.67-.3-1.28-.69-1.9-1.12-.3-.21-.42-.37-.18-.75.63-1,1.22-2.03,1.79-3.08.21-.37.33-.37.67-.13,3.06,2.14,6.45,2.82,10.08,2.11,2.55-.49,4-2.21,4.35-4.87.13-.88.16-1.75.12-2.72Zm-6.3-1.55c.13-.01.45-.01.76-.06,2.43-.34,4.32-1.51,5.18-3.93.87-2.43.6-4.78-1.18-6.73-1.63-1.78-3.75-2.22-6.02-1.96-3.93.46-6.33,4-5.39,7.91.69,2.93,3.2,4.78,6.64,4.76Z"/>
    <path class="cls-3" d="m95.45,92.69c-2.67,0-5.35.01-8.02-.01-.49,0-.54.15-.42.58.72,2.58,2.93,4.39,5.75,4.67,2.57.25,4.9-.24,6.82-2.12.22-.22.31-.13.48.06.75.9,1.48,1.79,2.25,2.66.27.3.1.43-.07.63-1.48,1.63-3.33,2.55-5.42,2.97-2.52.52-5.02.42-7.48-.37-4.64-1.49-7.54-5.48-7.56-10.57-.01-4.78,1.9-8.56,6.27-10.53,4.38-1.97,8.68-1.58,12.41,1.69,2.69,2.36,3.55,5.57,3.51,9.09-.01,1.25-.03,1.25-1.22,1.25h-7.3Zm-2.45-3.45c1.85,0,3.72-.01,5.57.01.51.01.63-.1.51-.63-.66-2.99-2.99-4.9-6.05-4.9s-5.41,1.91-6.11,5c-.1.46.01.52.42.52,1.9-.03,3.78-.01,5.66-.01Z"/>
    <path class="cls-3" d="m.62,79.85c1.72,0,3.34.01,4.97-.01.39,0,.43.25.54.51,1.36,3.33,2.73,6.67,4.09,10,.81,1.96,1.61,3.93,2.45,5.97.58-1.37,1.13-2.67,1.69-3.97,1.67-3.99,3.36-7.97,5.03-11.96.16-.4.37-.57.82-.55,1.42.03,2.82.01,4.32.01-.79,1.9-1.55,3.73-2.31,5.55-2.25,5.38-4.51,10.75-6.75,16.14-.18.43-.39.61-.87.6-1.4-.04-2.79-.01-4.2-.01-.3,0-.48-.06-.61-.39-3.05-7.27-6.09-14.53-9.17-21.89Z"/>
    <path class="cls-3" d="m30.02,90.5c0-2.09-.04-3.81.01-5.51.03-.69-.19-.81-.79-.78-.79.06-1.58,0-2.37.01-.33.01-.43-.09-.43-.43.01-1.1.03-2.22,0-3.33-.01-.39.13-.46.46-.45.85.01,1.72-.01,2.57.01.43.01.57-.09.55-.55-.03-1.34,0-2.69-.01-4.03,0-.37.07-.52.48-.51,1.4.03,2.79.03,4.2,0,.37,0,.45.13.45.48-.01,1.36.01,2.73-.01,4.09-.01.43.13.52.52.52,1.61-.01,3.21,0,4.82-.01.39,0,.51.09.49.49-.03,1.06-.03,2.14,0,3.2.01.45-.15.52-.54.51-1.61-.01-3.21,0-4.82-.01-.39,0-.48.1-.48.49.01,3.37,0,6.73.01,10.11.01,2.33,1.21,3.45,3.48,3.27.73-.06,1.45-.24,2.06-.69.3-.21.37-.1.46.16.36.97.73,1.96,1.12,2.91.15.34.07.52-.22.72-1.13.75-2.4,1.09-3.72,1.18-1.49.1-2.96-.01-4.36-.61-2.34-.99-3.49-2.88-3.81-5.35-.28-2.06-.06-4.18-.12-5.9Z"/>
    <path class="cls-3" d="m111.63,83.05c1.88-2.64,4.48-3.33,7.32-3.49.31-.01.43.06.43.42-.01,1.36-.03,2.73,0,4.09,0,.4-.13.42-.48.39-2.17-.19-4.14.22-5.6,2-1.09,1.31-1.42,2.91-1.42,4.6-.01,3.48-.03,6.94.01,10.42,0,.6-.18.7-.7.69-1.3-.04-2.58-.03-3.88,0-.37,0-.55-.03-.55-.51.01-7.09.01-14.2,0-21.29,0-.39.09-.51.48-.49,1.3.03,2.58.03,3.88,0,.43-.01.52.15.51.55-.01.81,0,1.63,0,2.63Z"/>
    <path class="cls-3" d="m45.55,91.03c0-3.54.01-7.08-.01-10.62,0-.43.09-.58.54-.57,1.36.03,2.72.03,4.08,0,.43-.01.51.13.51.54-.01,7.08-.01,14.16,0,21.23,0,.37-.07.52-.48.51-1.37-.03-2.76-.03-4.14,0-.43.01-.51-.13-.51-.55.01-3.51.01-7.02.01-10.54Z"/>
    <path class="cls-3" d="m48.16,70.01c1.84.01,3.24,1.3,3.24,3.02,0,1.84-1.39,3.24-3.26,3.24-1.85.01-3.27-1.34-3.27-3.14s1.42-3.12,3.29-3.12Z"/>
  </g>
  <g>
    <path class="cls-1" d="m40.53,22.62c-7.69,0-13.91,6.37-13.91,14.24s6.22,14.24,13.91,14.24c.82,0,1.61-.07,2.4-.22,2.71,6.94,9.34,11.84,17.08,11.84,7.23,0,13.47-4.26,16.47-10.47-1.54-.31-3-.84-4.37-1.61-2.34,4.39-6.88,7.38-12.1,7.38-5.73,0-10.67-3.61-12.74-8.71-.44-1.06-.73-2.2-.9-3.37v-.02c-.09-.48-.49-.82-.99-.82-.13,0-.24.02-.35.07-.09.05-.16.09-.26.15-.93.49-1.94.82-3.02.97-.4.05-.82.09-1.24.09-5.14,0-9.32-4.28-9.32-9.54s4.17-9.54,9.32-9.54c.42,0,.84.04,1.24.09,1.67.24,3.19.92,4.45,1.92.38.29.73.64,1.06.99.75.81,1.34,1.74,1.78,2.76.02.04.04.09.05.13.16.33.49.57.9.57.27,0,.53-.11.71-.29h0c.81-.77,1.7-1.43,2.69-1.98,1.96-1.1,4.21-1.72,6.59-1.72s4.63.62,6.59,1.72c1.46.81,2.75,1.89,3.83,3.17.57.68,1.08,1.39,1.52,2.18.93,1.63,1.54,3.48,1.76,5.44.02.02.04.05.07.07.27.31.59.59.9.84,1.08.86,2.34,1.41,3.7,1.61.02-.29.04-.6.04-.9,0-2.49-.48-4.87-1.34-7.05-.81-2.03-1.94-3.88-3.35-5.49-.31-.37-.64-.71-.99-1.04-1.12-1.1-2.36-2.03-3.72-2.82-2.65-1.54-5.73-2.4-8.99-2.4s-6.33.88-8.99,2.4c-1.06-1.24-2.32-2.29-3.75-3.09-1.34-.75-2.78-1.28-4.34-1.57-.77-.13-1.57-.22-2.4-.22h0Z"/>
    <path class="cls-2" d="m60.01,11c-7.23,0-13.47,4.26-16.47,10.47,1.54.31,3,.84,4.37,1.61,2.34-4.39,6.88-7.38,12.1-7.38,5.73,0,10.67,3.61,12.74,8.71.44,1.06.73,2.2.9,3.37h0c.09.48.49.82.99.82.13,0,.24-.02.35-.07.09-.05.16-.09.26-.15.93-.49,1.94-.82,3.02-.97.4-.05.82-.09,1.24-.09,5.14,0,9.32,4.28,9.32,9.54s-4.17,9.54-9.32,9.54c-.42,0-.84-.04-1.24-.09-1.67-.24-3.19-.92-4.45-1.92-.38-.31-.73-.64-1.06-.99-.75-.81-1.34-1.74-1.78-2.76-.02-.04-.04-.09-.05-.13-.16-.33-.49-.57-.9-.57-.27,0-.53.11-.71.29h0c-.81.77-1.7,1.43-2.69,1.98-1.96,1.1-4.21,1.72-6.59,1.72s-4.63-.62-6.59-1.72c-1.46-.81-2.75-1.89-3.83-3.17-.57-.68-1.08-1.39-1.52-2.18-.93-1.63-1.54-3.48-1.76-5.44-.02-.02-.04-.05-.07-.07-.27-.31-.59-.59-.9-.84-1.08-.86-2.34-1.41-3.7-1.61-.02.29-.04.6-.04.9,0,2.49.48,4.87,1.34,7.05.81,2.03,1.94,3.88,3.35,5.49.31.37.64.71.99,1.04,1.12,1.1,2.36,2.05,3.72,2.82,2.65,1.54,5.73,2.4,8.99,2.4s6.33-.88,8.99-2.4c1.06,1.24,2.32,2.29,3.73,3.09,1.34.75,2.78,1.3,4.34,1.57.79.15,1.57.22,2.4.22,7.69,0,13.91-6.37,13.91-14.24s-6.22-14.24-13.91-14.24c-.82,0-1.63.07-2.4.22-2.67-6.92-9.3-11.82-17.06-11.82Z"/>
  </g>
</svg>